<?xml version="1.0" encoding="utf-8"?>

<!-- Uploaded to: SVG Repo, www.svgrepo.com, Generator: SVG Repo Mixer Tools -->
<svg fill="#000000" height="800px" width="800px" version="1.1" id="Icons" xmlns="http://www.w3.org/2000/svg" xmlns:xlink="http://www.w3.org/1999/xlink" 
	 viewBox="0 0 32 32" xml:space="preserve">
<path d="M29.6,12.7c-0.1-0.5-0.6-0.8-1.1-0.8c-1.2,0.2-2.4-0.4-3-1.5c-0.6-1-0.5-2.4,0.2-3.3c0.3-0.4,0.3-1-0.1-1.3
	C24,4.3,22.1,3.2,20,2.6c-0.5-0.1-1,0.1-1.2,0.6C18.3,4.3,17.2,5,16,5s-2.3-0.7-2.8-1.8C13,2.7,12.5,2.4,12,2.6
	C9.9,3.2,8,4.3,6.4,5.9C6,6.2,6,6.8,6.3,7.2c0.7,1,0.8,2.3,0.2,3.3c-0.6,1-1.8,1.6-3,1.5c-0.5-0.1-1,0.3-1.1,0.8
	C2.1,13.8,2,14.9,2,16s0.1,2.2,0.4,3.3C2.5,19.8,3,20.1,3.5,20c1.2-0.2,2.4,0.4,3,1.5c0.6,1,0.5,2.4-0.2,3.3c-0.3,0.4-0.3,1,0.1,1.3
	c1.6,1.5,3.6,2.7,5.7,3.3c0.5,0.1,1-0.1,1.2-0.6c0.5-1.1,1.6-1.8,2.8-1.8s2.3,0.7,2.8,1.8c0.2,0.4,0.5,0.6,0.9,0.6
	c0.1,0,0.2,0,0.3,0c2.1-0.6,4.1-1.8,5.7-3.3c0.4-0.4,0.4-0.9,0.1-1.3c-0.7-1-0.8-2.3-0.2-3.3c0.6-1,1.8-1.6,3-1.5
	c0.5,0.1,1-0.3,1.1-0.8c0.3-1.1,0.4-2.2,0.4-3.3S29.9,13.8,29.6,12.7z M16,20c-2.2,0-4-1.8-4-4s1.8-4,4-4s4,1.8,4,4S18.2,20,16,20z"
	/>
</svg>